<?xml version="1.0" encoding="utf-8"?>
<svg viewBox="0 0 500 500" width="500" height="500" xmlns="http://www.w3.org/2000/svg">
  <ellipse style="paint-order: stroke; fill: rgb(224, 95, 30); stroke: rgb(224, 95, 30); stroke-width: 0px;" cx="250.637" cy="249.858" rx="248.213" ry="248.335"/>
  <text style="white-space: pre; fill: rgb(51, 51, 51); font-family: Arial, sans-serif; font-size: 15.5px;" x="145.233" y="334.257"> </text>
  <path style="fill: rgb(216, 216, 216); stroke: rgb(0, 0, 0); stroke-width: 0px;" d="M 152.045 372.935 L 151.217 152.094 L 342.028 151.376 L 342.615 151.395 L 343.239 151.444 L 343.833 151.508 L 344.456 151.605 L 345.062 151.737 L 345.682 151.914 L 346.999 152.351 L 348.232 152.867 L 349.408 153.479 L 350.231 154.032 L 350.711 154.397 L 351.156 154.793 L 351.529 155.121 L 351.864 155.478 L 352.137 155.804 L 352.447 156.224 L 352.732 156.726 L 352.944 157.229 L 353.122 157.706 L 353.299 158.246 L 353.452 158.771 L 353.587 159.296 L 353.707 159.882 L 353.807 160.467 C 353.807 160.467 353.857 160.901 353.881 161.118 C 353.91 161.372 353.946 161.881 353.946 161.881 L 353.961 162.548 L 355.035 373.144 L 241.302 373.332 L 240.812 171.657 L 171.647 171.885 L 172.902 372.916 L 152.045 372.935 Z"/>
</svg>